/* XPM */
static char * sweepp_xpm[] = {
"64 64 110 2",
"  	c None",
". 	c #4874B3",
"+ 	c #4875B4",
"@ 	c #4976B6",
"# 	c #4977B8",
"$ 	c #4B79BB",
"% 	c #4A77B8",
"& 	c #4975B5",
"* 	c #4875B5",
"= 	c #4B79BC",
"- 	c #4B79BA",
"; 	c #4671AF",
"> 	c #4B7ABC",
", 	c #4874B2",
"' 	c #4575B9",
") 	c #4071B7",
"! 	c #4A78B9",
"~ 	c #ABC0DF",
"{ 	c #FFFFFF",
"] 	c #4672B0",
"^ 	c #A5BCDD",
"/ 	c #4773B1",
"( 	c #4976B5",
"_ 	c #4A76B7",
": 	c #4976B7",
"< 	c #4E7BBC",
"[ 	c #5F87C3",
"} 	c #4772B1",
"| 	c #4A78BB",
"1 	c #E3EAF5",
"2 	c #F8FAFC",
"3 	c #5983C0",
"4 	c #4272B8",
"5 	c #86A5D2",
"6 	c #D1DDEE",
"7 	c #D3DEEE",
"8 	c #8BA9D3",
"9 	c #5F88C3",
"0 	c #4172B8",
"a 	c #4A78BA",
"b 	c #4873B3",
"c 	c #4877BA",
"d 	c #5580BF",
"e 	c #A6BDDE",
"f 	c #ECF1F8",
"g 	c #F4F7FB",
"h 	c #B0C4E1",
"i 	c #5E87C2",
"j 	c #4675B9",
"k 	c #537FBE",
"l 	c #BECFE7",
"m 	c #CBD8EC",
"n 	c #5D86C2",
"o 	c #4977BA",
"p 	c #4B78BA",
"q 	c #96B0D7",
"r 	c #A8BEDE",
"s 	c #5782C0",
"t 	c #E5ECF5",
"u 	c #97B1D7",
"v 	c #5A85C1",
"w 	c #9FB7DB",
"x 	c #E9EFF7",
"y 	c #7699CB",
"z 	c #4273B8",
"A 	c #4874B4",
"B 	c #AAC0DF",
"C 	c #4473B8",
"D 	c #4373B8",
"E 	c #7599CB",
"F 	c #5883C0",
"G 	c #82A2D0",
"H 	c #4776BA",
"I 	c #4574B8",
"J 	c #96B1D7",
"K 	c #F6F8FC",
"L 	c #B1C5E2",
"M 	c #4978BA",
"N 	c #5B85C1",
"O 	c #E8EEF6",
"P 	c #658DC5",
"Q 	c #688EC6",
"R 	c #D9E2F1",
"S 	c #4474B8",
"T 	c #6B91C7",
"U 	c #A6BDDD",
"V 	c #C0D0E7",
"W 	c #7397CA",
"X 	c #9FB8DB",
"Y 	c #D1DCEE",
"Z 	c #DDE6F2",
"` 	c #A4BBDD",
" .	c #4975B6",
"..	c #4A77B7",
"+.	c #D2DEEE",
"@.	c #DFE7F3",
"#.	c #A4BBDC",
"$.	c #4977B7",
"%.	c #A5BBDD",
"&.	c #799BCD",
"*.	c #C9D7EB",
"=.	c #779ACC",
"-.	c #E6ECF5",
";.	c #4772B0",
">.	c #C3D2E9",
",.	c #B0C5E2",
"'.	c #C3D2E8",
").	c #4570AD",
"!.	c #4773B2",
"~.	c #A0B8DB",
"                                                                                                                                ",
"                                                                                                                                ",
"                                                    . + @ # @ $ $ @ % @ & .                                                     ",
"                                              * $ = $ $ $ $ $ $ $ $ $ $ $ $ = - @ ;                                             ",
"                                        + $ $ $ $ $ $ $ $ $ $ $ $ $ $ $ $ $ $ $ $ $ $ &                                         ",
"                                    @ > $ $ $ $ $ $ $ $ $ $ $ $ $ $ $ $ $ $ $ $ $ $ $ $ > @                                     ",
"                                , > $ $ $ $ $ $ $ $ $ $ $ ' ) ) ) ) ' $ $ $ $ $ $ $ $ $ $ $ > .                                 ",
"                              ! $ $ $ $ $ $ $ $ $ $ $ $ $ ~ { { { { ~ $ $ $ $ $ $ $ $ $ $ $ $ $ !                               ",
"                          ] > $ $ $ $ $ $ $ $ $ $ $ $ $ $ ^ { { { { ^ $ $ $ $ $ $ $ $ $ $ $ $ $ $ > /                           ",
"                        ( $ $ $ $ $ $ $ $ $ $ $ $ $ $ $ $ ^ { { { { ^ $ $ $ $ $ $ $ $ $ $ $ $ $ $ $ $ _                         ",
"                      & $ $ $ $ $ $ $ $ $ $ $ $ $ $ $ $ $ ^ { { { { ^ $ $ $ $ $ $ $ $ $ $ $ $ $ $ $ $ $ :                       ",
"                    & $ $ $ $ $ $ $ $ $ $ $ $ $ $ $ $ $ $ ^ { { { { ^ $ $ $ $ $ $ $ $ $ $ $ $ $ $ $ $ $ $ @                     ",
"                  & $ $ $ $ $ < [ $ $ $ $ $ $ $ $ $ $ $ $ ^ { { { { ^ $ $ $ $ $ $ $ $ $ $ $ $ [ < $ $ $ $ $ @                   ",
"                } $ $ $ $ $ | 1 2 3 $ $ $ $ $ $ $ | 4 3 5 6 { { { { 7 8 9 0 a $ $ $ $ $ $ $ 3 2 1 | $ $ $ $ $ b                 ",
"                > $ $ $ $ | 1 { { 2 3 $ $ $ $ c d e f { { { { { { { { { { g h i j $ $ $ $ 3 2 { { 1 | $ $ $ $ >                 ",
"              ! $ $ $ $ < 1 { { { { 2 3 $ | k l { { { { { { { { { { { { { { { { m n o $ 3 2 { { { { 1 < $ $ $ $ p               ",
"            , $ $ $ $ $ [ 2 { { { { { 2 d q { { { { { { { { { { { { { { { { { { { { r s 2 { { { { { 2 [ $ $ $ $ $ .             ",
"            > $ $ $ $ $ $ 3 2 { { { { { { { { { { { { { { { { { { { { { { { { { { { { { { { { { { 2 3 $ $ $ $ $ $ >             ",
"          @ $ $ $ $ $ $ $ $ 3 2 { { { { { { { { { { t u v w { { { { { { { { { { { { { { { { { { 2 3 $ $ $ $ $ $ $ $ :           ",
"          > $ $ $ $ $ $ $ $ $ 3 2 { { { { { { { x y z $ $ ^ { { { { { { { { { { { { { { { { { 2 3 $ $ $ $ $ $ $ $ $ =           ",
"        A $ $ $ $ $ $ $ $ $ $ $ d { { { { { { B C $ $ D E 6 { { { { { { { { { { { { { { { { { F $ $ $ $ $ $ $ $ $ $ $ *         ",
"        - $ $ $ $ $ $ $ $ $ $ | q { { { { { G H $ I J K { { { { { { { { { { { { { { { { { { { L c $ $ $ $ $ $ $ $ $ $ >         ",
"        $ $ $ $ $ $ $ $ $ $ $ k { { { { { G M $ N O { { { { { { { { { { { { { { { { { { { { { { P $ $ $ $ $ $ $ $ $ $ $ }       ",
"      + $ $ $ $ $ $ $ $ $ $ c l { { { { B H $ Q { { { { { { { { { { { { { { { { { { { { { { { { R S $ $ $ $ $ $ $ $ $ $ &       ",
"      p $ $ $ $ $ $ $ $ $ $ d { { { { x C $ N { { { { { { { { { { { { { { { { { { { { { { { { { { T $ $ $ $ $ $ $ $ $ $ >       ",
"      = $ $ $ $ $ $ $ $ $ | U { { { { y $ I O { { { { { { { { { { { { { { { { { { { { { { { { { { V c $ $ $ $ $ $ $ $ $ =       ",
"    . $ $ $ $ $ $ $ $ $ $ 4 f { { { t z $ J { { { { { { { { { { { { { { { { { { { { { { { { { { { { S $ $ $ $ $ $ $ $ $ $ +     ",
"    + $ $ $ $ $ $ $ $ $ $ 3 { { { { u $ D K { { { { { { { { { { { { { { { { { { { { { { { { { { { { W $ $ $ $ $ $ $ $ $ $ &     ",
"    & $ $ $ $ $ $ $ $ $ $ 5 { { { { v $ y { { { { { { { { { { { { { { { { { { { { { { { { { { { { { X $ $ $ $ $ $ $ $ $ $ @     ",
"    : $ $ $ ' ~ ^ ^ ^ ^ ^ Y { { { { w ^ 6 { { { { { { { { { { { { { { { { { { { { { { { { { { { { { Z ` ^ ^ ^ ^ ~ ' $ $ $ :     ",
"    @ $ $ $ ) { { { { { { { { { { { { { { { { { { { { { { { { { { { { { { { { { { { { { { { { { { { { { { { { { { ) $ $ $ >     ",
"    $ $ $ $ ) { { { { { { { { { { { { { { { { { { { { { { { { { { { { { { { { { { { { { { { { { { { { { { { { { { ) $ $ $ $     ",
"    $ $ $ $ ) { { { { { { { { { { { { { { { { { { { { { { { { { { { { { { { { { { { { { { { { { { { { { { { { { { ) $ $ $ $     ",
"     .$ $ $ ) { { { { { { { { { { { { { { { { { { { { { { { { { { { { { { { { { { { { { { { { { { { { { { { { { { ) $ $ $ >     ",
"    ..$ $ $ ' ~ ^ ^ ^ ^ ^ +.{ { { { { { { { { { { { { { { { { { { { { { { { { { { { { { { { { { { { @.#.^ ^ ^ ^ ~ ' $ $ $ $.    ",
"    & $ $ $ $ $ $ $ $ $ $ 8 { { { { { { { { { { { { { { { { { { { { { { { { { { { { { { { { { { { { %.$ $ $ $ $ $ $ $ $ $  .    ",
"    & $ $ $ $ $ $ $ $ $ $ 9 { { { { { { { { { { { { { { { { { { { { { { { { { { { { { { { { { { { { &.$ $ $ $ $ $ $ $ $ $ @     ",
"    . $ $ $ $ $ $ $ $ $ $ 0 g { { { { { { { { { { { { { { { { { { { { { { { { { { { { { { { { { { { H $ $ $ $ $ $ $ $ $ $ A     ",
"      = $ $ $ $ $ $ $ $ $ a h { { { { { { { { { { { { { { { { { { { { { { { { { { { { { { { { { { *.H $ $ $ $ $ $ $ $ $ =       ",
"      - $ $ $ $ $ $ $ $ $ $ i { { { { { { { { { { { { { { { { { { { { { { { { { { { { { { { { { { =.$ $ $ $ $ $ $ $ $ $ >       ",
"       .$ $ $ $ $ $ $ $ $ $ j m { { { { { { { { { { { { { { { { { { { { { { { { { { { { { { { { -.z $ $ $ $ $ $ $ $ $ $ @       ",
"      ; $ $ $ $ $ $ $ $ $ $ $ n { { { { { { { { { { { { { { { { { { { { { { { { { { { { { { { { W $ $ $ $ $ $ $ $ $ $ $ ;.      ",
"        $ $ $ $ $ $ $ $ $ $ $ o r { { { { { { { { { { { { { { { { { { { { { { { { { { { { { { >.j $ $ $ $ $ $ $ $ $ $ >         ",
"        + $ $ $ $ $ $ $ $ $ $ $ s { { { { { { { { { { { { { { { { { { { { { { { { { { { { { { i $ $ $ $ $ $ $ $ $ $ $ &         ",
"          > $ $ $ $ $ $ $ $ $ 3 2 { { { { { { { { { { { { { { { { { { { { { { { { { { { { { { 2 3 $ $ $ $ $ $ $ $ $ =           ",
"          @ $ $ $ $ $ $ $ $ 3 2 { { { { { { { { { { { { { { { { { { { { { { { { { { { { { { { { 2 3 $ $ $ $ $ $ $ $ $.          ",
"            > $ $ $ $ $ $ 3 2 { { { { { { { { { { { { { { { { { { { { { { { { { { { { { { { { { { 2 3 $ $ $ $ $ $ >             ",
"            . $ $ $ $ $ [ 2 { { { { { 2 F ,.{ { { { { { { { { { { { { { { { { { { { '.i 2 { { { { { 2 [ $ $ $ $ $ +             ",
"              ! $ $ $ $ < 1 { { { { 2 3 $ c P R { { { { { { { { { { { { { { { { -.W j $ 3 2 { { { { 1 < $ $ $ $ p               ",
"                > $ $ $ $ | 1 { { 2 3 $ $ $ $ S T V { { { { { { { { { { { { *.=.z $ $ $ $ 3 2 { { 1 | $ $ $ $ = ).              ",
"                !.$ $ $ $ $ | 1 2 3 $ $ $ $ $ $ $ c S W ~.Z { { { { @.^ &.H H $ $ $ $ $ $ $ 3 2 1 | $ $ $ $ $ A                 ",
"                  _ $ $ $ $ $ < [ $ $ $ $ $ $ $ $ $ $ $ $ ` { { { { #.$ $ $ $ $ $ $ $ $ $ $ $ [ < $ $ $ $ $ %                   ",
"                    : $ $ $ $ $ $ $ $ $ $ $ $ $ $ $ $ $ $ ^ { { { { ^ $ $ $ $ $ $ $ $ $ $ $ $ $ $ $ $ $ $ :                     ",
"                      @ $ $ $ $ $ $ $ $ $ $ $ $ $ $ $ $ $ ^ { { { { ^ $ $ $ $ $ $ $ $ $ $ $ $ $ $ $ $ $ :                       ",
"                        @ $ $ $ $ $ $ $ $ $ $ $ $ $ $ $ $ ^ { { { { ^ $ $ $ $ $ $ $ $ $ $ $ $ $ $ $ $ %                         ",
"                          !.> $ $ $ $ $ $ $ $ $ $ $ $ $ $ ^ { { { { ^ $ $ $ $ $ $ $ $ $ $ $ $ $ $ = .                           ",
"                              p $ $ $ $ $ $ $ $ $ $ $ $ $ ~ { { { { ~ $ $ $ $ $ $ $ $ $ $ $ $ $ -                               ",
"                                . > $ $ $ $ $ $ $ $ $ $ $ ' ) ) ) ) ' $ $ $ $ $ $ $ $ $ $ $ > +                                 ",
"                                    $.= $ $ $ $ $ $ $ $ $ $ $ $ $ $ $ $ $ $ $ $ $ $ $ $ = #                                     ",
"                                        * > $ $ $ $ $ $ $ $ $ $ $ $ $ $ $ $ $ $ $ $ > @                                         ",
"                                            } & > = $ $ $ $ $ $ $ $ $ $ $ $ = > @ ;.                                            ",
"                                                    . ( @ : > $ $ = # @ @ .                                                     ",
"                                                                                                                                ",
"                                                                                                                                "};
